<!DOCTYPE svg PUBLIC "-//W3C//DTD SVG 20010904//EN" "http://www.w3.org/TR/2001/REC-SVG-20010904/DTD/svg10.dtd">
<svg version="1.0" xmlns="http://www.w3.org/2000/svg" width="512px" height="128px" viewBox="0 0 5120 1280"
    preserveAspectRatio="xMidYMid meet">
    <g id="layer101" fill="currentColor" stroke="none">
    </g>
    <g id="layer102" fill="currentColor" stroke="none">
        <path
            d="M907 1210 c-58 -30 -84 -31 -73 -3 3 8 2 12 -3 9 -10 -6 -13 -66 -3 -66 4 1 34 7 67 15 33 8 63 15 67 15 9 0 -7 -46 -33 -96 -24 -47 -25 -122 -2 -162 25 -43 84 -65 165 -60 38 2 68 0 68 -4 0 -14 42 -30 66 -24 49 13 55 90 8 102 -13 3 -24 10 -24 15 0 5 -3 8 -7 8 -28 -5 -33 4 -32 59 0 94 14 193 28 201 9 6 4 9 -13 9 -20 0 -26 -6 -26 -22 0 -11 -5 -38 -10 -58 l-11 -37 -54 36 c-60 40 -64 49 -37 69 16 12 16 13 -4 14 -12 0 -34 2 -50 5 -20 4 -47 -4 -87 -25z m166 -121 c-5 -3 -20 -9 -35 -13 -28 -6 -28 -6 -28 41 l0 47 35 -34 c19 -19 32 -37 28 -41z m43 -82 c-11 -28 -19 -34 -35 -30 -28 7 -27 11 11 50 37 38 46 31 24 -20z" />
        <path
            d="M2322 1231 c-13 -8 -10 -23 25 -104 14 -30 22 -37 42 -35 15 1 48 -13 75 -30 28 -18 60 -32 72 -32 13 0 25 -8 28 -17 9 -31 20 -98 18 -106 -4 -15 19 -131 31 -152 6 -11 11 -23 12 -27 0 -11 59 -60 109 -91 25 -16 46 -35 46 -42 0 -7 -16 -23 -35 -35 l-35 -22 -29 21 c-16 12 -34 21 -40 21 -6 0 -17 16 -26 36 -8 20 -20 34 -27 32 -22 -8 -15 -24 35 -77 80 -86 83 -87 158 -49 35 18 68 39 72 45 12 20 24 15 31 -12 12 -48 80 -56 110 -13 16 22 6 75 -13 71 -6 -2 -11 3 -11 10 0 8 -12 20 -27 27 -16 8 -29 15 -31 16 -7 4 27 60 46 77 16 14 24 16 39 8 10 -6 30 -15 45 -20 14 -6 32 -22 40 -38 16 -33 48 -44 48 -16 0 11 -20 34 -47 54 -113 83 -122 85 -183 34 -47 -39 -60 -42 -95 -19 -39 26 -31 54 35 119 41 40 60 67 58 80 -2 14 -32 34 -102 70 l-98 49 5 46 c3 25 9 53 12 63 5 13 2 17 -14 17 -14 0 -25 -11 -36 -37 -9 -21 -23 -45 -31 -54 -14 -16 -14 -19 5 -38 12 -12 27 -21 34 -21 8 0 24 -12 38 -26 13 -14 39 -35 57 -46 30 -18 32 -22 17 -31 -9 -5 -34 -11 -55 -13 -37 -3 -40 -1 -95 72 -31 41 -64 78 -73 80 -9 3 -26 10 -37 14 -11 5 -38 16 -60 25 -44 18 -88 55 -114 97 -11 17 -22 24 -29 19z" />
        <path
            d="M3360 1220 c-11 -11 -26 -36 -35 -56 l-15 -36 40 -39 c21 -21 48 -55 59 -76 10 -21 36 -52 57 -69 27 -21 45 -48 59 -85 11 -30 18 -58 17 -62 -1 -5 3 -24 9 -42 10 -28 10 -37 -4 -58 -15 -23 -47 -187 -47 -241 0 -19 11 -28 59 -50 32 -14 64 -33 71 -41 7 -8 21 -15 31 -15 23 0 23 -4 6 -33 -8 -12 -13 -28 -12 -34 2 -7 3 -17 4 -22 5 -36 95 -57 120 -28 12 16 18 98 7 115 -4 7 -13 12 -21 12 -20 0 -26 28 -8 45 16 16 15 35 -7 110 -23 79 -23 85 -7 85 9 0 23 -10 31 -22 19 -26 52 -33 60 -13 9 23 -4 45 -26 45 -19 0 -88 36 -88 46 0 2 24 29 53 58 28 30 60 68 70 85 18 30 18 31 -7 52 -14 12 -57 36 -96 54 -39 18 -77 41 -85 51 -8 11 -15 40 -15 67 0 34 -4 47 -14 47 -20 0 -22 -6 -30 -78 l-7 -62 29 -6 c17 -3 51 -23 76 -44 25 -21 52 -40 59 -43 21 -7 -10 -34 -47 -41 -28 -5 -38 -1 -69 28 -20 18 -45 48 -55 66 -11 18 -61 74 -111 126 -83 85 -91 97 -91 132 0 21 7 47 15 58 8 10 15 22 15 27 0 14 -30 7 -50 -13z m233 -646 c16 -33 23 -104 12 -116 -3 -3 -17 -3 -30 0 -24 4 -25 8 -25 78 0 84 14 96 43 38z" />
        <path
            d="M4061 1231 c-11 -7 -11 -17 2 -62 8 -30 18 -71 21 -91 7 -36 9 -38 44 -38 31 0 45 -8 85 -49 26 -26 65 -56 87 -66 33 -15 42 -25 50 -59 17 -68 28 -85 96 -161 65 -72 99 -94 173 -110 l34 -7 -7 34 c-6 32 -4 35 39 58 25 14 45 27 45 30 0 4 20 20 45 38 30 21 45 39 45 53 0 14 -34 56 -92 116 l-93 94 0 75 c1 65 -1 74 -17 74 -20 0 -30 -19 -48 -99 -12 -50 -11 -55 6 -67 36 -25 53 -46 59 -75 4 -16 18 -43 32 -59 18 -22 21 -31 11 -34 -7 -2 -38 -11 -70 -19 l-56 -15 -28 29 c-15 16 -33 29 -39 29 -6 0 -31 21 -55 46 -25 25 -89 75 -144 111 -120 78 -145 103 -182 176 -21 41 -33 54 -43 48z" />
        <path
            d="M277 1215 c-12 -8 -31 -11 -51 -8 -19 3 -42 0 -54 -6 -16 -8 -21 -7 -26 4 -9 26 -26 16 -26 -15 0 -25 4 -30 34 -36 26 -4 36 -12 41 -32 14 -54 46 -73 145 -81 62 -6 66 -8 79 -39 20 -43 54 -52 87 -21 13 12 24 32 24 44 0 23 -32 64 -63 82 -16 8 -15 13 13 49 18 21 41 43 53 48 l22 9 -23 5 c-29 5 -69 -21 -90 -59 -10 -16 -21 -29 -25 -29 -10 0 3 71 16 88 9 11 6 13 -13 10 -18 -2 -28 -12 -35 -35 -5 -18 -15 -33 -21 -33 -14 0 -28 35 -20 49 6 9 -16 21 -37 21 -7 0 -20 -7 -30 -15z" />
        <path
            d="M1628 1224 c-5 -4 -8 -20 -8 -36 0 -23 16 -45 76 -104 77 -77 86 -94 85 -174 0 -27 13 -59 40 -100 17 -25 16 -75 -1 -85 -11 -7 -130 122 -130 140 0 20 -33 36 -51 24 -11 -8 -10 -13 12 -32 14 -12 36 -39 48 -59 12 -21 53 -66 91 -101 l69 -63 -29 -28 c-56 -52 -34 -106 42 -106 29 0 36 5 46 33 15 41 16 77 2 77 -18 0 -11 32 13 55 12 12 30 36 39 54 20 36 40 33 61 -10 14 -26 47 -38 47 -17 0 18 -72 88 -90 88 -7 0 -21 -7 -31 -16 -17 -15 -18 -14 -24 12 -4 16 -11 42 -17 57 -10 27 -8 31 40 73 29 25 52 53 52 62 0 9 -23 43 -50 75 -52 61 -57 75 -40 108 13 24 1 25 -41 3 -29 -15 -30 -16 -15 -37 9 -12 21 -33 27 -47 6 -14 21 -39 35 -57 26 -35 25 -37 -26 -47 -33 -6 -37 -3 -68 42 -18 27 -62 70 -97 96 -45 33 -70 60 -82 88 -10 22 -21 36 -25 32z" />
        <path
            d="M4362 598 c-18 -18 -14 -41 14 -79 14 -19 39 -57 55 -86 25 -43 45 -61 115 -104 50 -30 91 -48 100 -45 27 10 33 -3 18 -40 -14 -32 -13 -39 3 -72 15 -32 23 -37 56 -40 23 -2 48 3 62 12 20 13 24 24 23 68 -1 63 -12 88 -38 88 -17 0 -19 5 -14 43 5 37 1 52 -30 107 l-35 65 -83 11 c-46 6 -91 14 -100 19 -27 11 -23 -21 7 -53 24 -25 50 -91 40 -100 -2 -2 -15 -2 -27 1 -30 8 -108 119 -108 155 0 24 -19 71 -20 48 0 -5 -6 -4 -13 3 -10 8 -17 7 -25 -1z" />
        <path
            d="M4776 343 c-11 -11 -6 -23 9 -23 8 0 21 -15 29 -33 7 -19 40 -56 72 -83 32 -27 84 -75 116 -106 31 -32 60 -58 64 -58 4 0 17 -8 28 -18 21 -17 21 -17 3 4 -9 12 -15 28 -11 37 9 24 -14 57 -39 57 -15 0 -36 18 -65 55 -44 56 -195 179 -206 168z" />
    </g>
    <g id="layer103" fill="#bf2934" stroke="none">
        <path
            d="M4175 754 c-74 -29 -116 -36 -149 -24 -28 10 -33 8 -53 -17 -12 -15 -19 -31 -16 -36 10 -17 117 2 191 33 117 50 174 36 249 -61 56 -71 110 -97 224 -106 81 -6 81 -6 77 17 -3 22 -7 24 -60 21 -77 -3 -113 16 -203 108 l-74 76 -73 2 c-49 2 -86 -2 -113 -13z" />
        <path
            d="M4145 625 c-16 -8 -42 -14 -57 -15 -18 0 -28 -5 -28 -15 0 -18 17 -19 92 -5 53 10 81 7 156 -15 38 -12 25 12 -21 40 -48 28 -95 31 -142 10z" />
    </g>


</svg>